<svg width="70" height="72" viewBox="0 0 70 72" fill="none" xmlns="http://www.w3.org/2000/svg">
<path d="M10.58 20H22V8.58002L10.58 20Z" fill="#353849"/>
<path d="M46 25.03V9C46 8.45001 45.55 8 45 8H24V21C24 21.55 23.55 22 23 22H10V55C10 55.55 10.45 56 11 56H45C45.55 56 46 55.55 46 55V47.65C41.63 46.09 38.38 42.06 38.04 37.21C38.01 36.96 38 36.65 38 36.34C38 31.12 41.34 26.68 46 25.03ZM15 26H36C36.55 26 37 26.44 37 27C37 27.55 36.55 28 36 28H15C14.45 28 14 27.55 14 27C14 26.44 14.45 26 15 26ZM15 36H32C32.55 36 33 36.44 33 37C33 37.55 32.55 38 32 38H15C14.45 38 14 37.55 14 37C14 36.44 14.45 36 15 36ZM37 48H15C14.45 48 14 47.55 14 47C14 46.44 14.45 46 15 46H37C37.55 46 38 46.44 38 47C38 47.55 37.55 48 37 48ZM27 18C26.45 18 26 17.55 26 17C26 16.44 26.45 16 27 16H41C41.55 16 42 16.44 42 17C42 17.55 41.55 18 41 18H27Z" fill="#353849"/>
<path d="M50 26.34C44.49 26.34 40 30.82 40 36.34C40 36.59 40.01 36.84 40.03 37.07C40.4 42.26 44.78 46.34 50 46.34C55.51 46.34 60 41.85 60 36.34C60 30.82 55.51 26.34 50 26.34ZM53.87 33.49L49.87 40.49C49.73 40.73 49.5 40.91 49.23 40.97C49.15 40.99 49.08 41 49 41C48.8 41 48.61 40.94 48.44 40.83L45.44 38.83C44.99 38.52 44.86 37.9 45.17 37.44C45.47 36.98 46.09 36.86 46.55 37.16L48.66 38.57L52.13 32.5C52.41 32.02 53.02 31.85 53.5 32.13C53.98 32.4 54.14 33.01 53.87 33.49Z" fill="#353849"/>
</svg>
