<svg width="70" height="72" viewBox="0 0 70 72" fill="none" xmlns="http://www.w3.org/2000/svg">
<path d="M59 16V37.01H11V16C11 14.35 12.34 13 14 13H56C57.65 13 59 14.35 59 16Z" fill="#353849"/>
<path d="M11 39.01H59V44.01C59 45.66 57.65 47.01 56 47.01H36V51.01H39.03C39.3 51.01 39.55 51.11 39.74 51.3L43.71 55.29C43.89 55.48 44 55.74 44 56V57.01C44 57.56 43.55 58.01 43 58.01C42.45 58.01 42 57.56 42 57.01V56.41L38.62 53.01H31.38L28 56.41V57.01C28 57.56 27.55 58.01 27 58.01C26.45 58.01 26 57.56 26 57.01V56C26 55.74 26.1 55.48 26.29 55.29L30.2599 51.3C30.45 51.11 30.7 51.01 30.97 51.01H34V47.01H14C12.34 47.01 11 45.66 11 44.01V39.01Z" fill="#353849"/>
</svg>
