<svg width="70" height="72" viewBox="0 0 70 72" fill="none" xmlns="http://www.w3.org/2000/svg">
<path d="M58 23C58.55 23 59 22.55 59 22V10C59 9.44 58.55 9 58 9H12C11.45 9 11 9.44 11 10V22C11 22.55 11.45 23 12 23H21V26H12C11.45 26 11 26.44 11 27V39C11 39.55 11.45 40 12 40H21V43H12C11.45 43 11 43.44 11 44V56C11 56.55 11.45 57 12 57H58C58.55 57 59 56.55 59 56V44C59 43.44 58.55 43 58 43H25V40H58C58.55 40 59 39.55 59 39V27C59 26.44 58.55 26 58 26H25V23H58ZM48.45 15.29C48.54 15.2 48.65 15.12 48.77 15.07C49.14 14.92 49.58 15.01 49.86 15.29C49.95 15.38 50.03 15.49 50.08 15.61C50.13 15.74 50.15 15.86 50.15 16C50.15 16.26 50.05 16.52 49.86 16.7C49.67 16.89 49.42 17 49.15 17C48.89 17 48.63 16.89 48.45 16.7C48.2599 16.51 48.15 16.26 48.15 16C48.15 15.73 48.2599 15.48 48.45 15.29ZM48.45 49.29C48.82 48.92 49.49 48.92 49.86 49.29C50.05 49.47 50.15 49.73 50.15 49.99C50.15 50.26 50.05 50.52 49.86 50.7C49.67 50.89 49.42 51 49.15 51C48.89 51 48.63 50.89 48.45 50.7C48.2599 50.51 48.15 50.26 48.15 49.99C48.15 49.73 48.2599 49.47 48.45 49.29ZM27.92 49C28.48 49 28.92 49.44 28.92 50C28.92 50.55 28.48 51 27.92 51H19.08C18.52 51 18.08 50.55 18.08 50C18.08 49.44 18.52 49 19.08 49H27.92ZM48.45 32.29C48.54 32.19 48.65 32.12 48.77 32.07C49.14 31.92 49.58 32.01 49.86 32.29C50.05 32.47 50.15 32.73 50.15 33C50.15 33.13 50.13 33.26 50.08 33.38C50.03 33.5 49.95 33.61 49.86 33.7C49.67 33.89 49.42 34 49.15 34C48.89 34 48.63 33.89 48.45 33.7C48.2599 33.52 48.15 33.26 48.15 33C48.15 32.73 48.2599 32.48 48.45 32.29ZM27.92 32C28.48 32 28.92 32.44 28.92 33C28.92 33.55 28.48 34 27.92 34L19.08 33.99C18.52 33.99 18.08 33.55 18.08 32.99C18.08 32.44 18.52 31.99 19.08 31.99L27.92 32ZM19.08 16.99C18.52 16.99 18.08 16.55 18.08 15.99C18.08 15.44 18.52 14.99 19.08 14.99L27.92 15C28.48 15 28.92 15.44 28.92 16C28.92 16.55 28.48 17 27.92 17L19.08 16.99Z" fill="#353849"/>
</svg>
